<?xml version="1.0" encoding="UTF-8"?>
<svg id="Layer_1" data-name="Layer 1" xmlns="http://www.w3.org/2000/svg" viewBox="0 0 434.48 401.55">
  <defs>
    <style>
      .cls-1 {
        fill: #add9b2;
        stroke-width: 0px;
      }
    </style>
  </defs>
  <path class="cls-1" d="m400.58,154.81c3.45-3.7,6.12-.78,6.14,1.94.05,8.27,5.81,12.14,10.84,16.09-1.28,12.48-10.42,19.57-17.07,28.32-.45-1.7-.81-3.06-1.18-4.41-1.52.46-3.03.93-4.89,1.49.42-1.18.87-2.46,1.33-3.74-.28-.1-.68-.38-.82-.29-3.08,2.15-6.03,4.51-9.24,6.42-.91.54-2.76.15-3.86-.43-2.25-1.18-4.29-2.78-6.05-3.96-1.69,2.13-3.71,3.77-4.52,5.88-1.96,5.07-4.23,1.02-6.32.58-4.63,1.87-9.28,3.58-13.77,5.66-1.21.56-1.9,2.23-2.84,3.39,1.3.49,2.59,1.34,3.91,1.38,2.19.07,4.39-.37,6.64.07-3.8,0-7.61,0-11.43.01-.8-.28-2.13-.4-2.27-.88-2.25-7.52-5.95-2.2-9.09-1.61-.07.44-.14.89-.21,1.33,3.89.37,7.78.74,11.66,1.12-5.87,1.25-11.31,1.24-16.95-1.98-2.61-1.49-6.77-.25-10.34-.25.43-.47.98-1.08,1.89-2.08-3.96-1.86-6.47-6.92-12.3-2.93-1.88,1.28-5.69-.6-8.54-.32-5.53.55-11,1.59-16.5,2.45-2.15.34-4.29.74-6.43,1.1-3.51.6-7.15.78-10.48,1.9-5.04,1.7-3.34,6.08-2.95,9.68.42,3.83,3.55,4.11,6.26,3.62,9.27-1.66,18.4-4.36,27.72-5.35,9.96-1.06,20.18-1.67,30.09-.6,14.38,1.56,28.53,5.11,42.87,7.21,9,1.31,14.84,7.35,21.39,12.43,6.34,4.92,12.32,10.3,18.73,15.13,8.8,6.62,15.24,14.93,19.38,25.09.52,1.26.88,2.71,1.75,3.69,1.98,2.21,1.56,3.75-.03,6.22-5.23,8.11-9.62,16.76-14.98,24.77-5.8,8.69-10.88,18.19-20.94,23.16-1.25.62-1.97,2.32-2.94,3.51-6.37,7.74-14.25,12.34-24.59,12.59-4.56.11-9.11,1.2-13.63,2.06-11.61,2.21-23.37,2.14-34.47-1.32-13.73-4.28-27.02-9.8-35.41-23.06-2.79-4.41-7.77-7.55-12.1-10.81-1.3-.98-4.45-1.2-5.57-.3-1.44,1.16-2.54,3.92-2.27,5.76.38,2.55,1.73,5.27,3.43,7.25,7.11,8.29,13.63,17.36,16.01,27.79,2.63,11.51,4.73,23.76-1.62,35.26-1.13,2.04-1.54,4.47-2.27,6.68-9.49-1.11-18.78-2.21-28.08-3.28-5.26-.6-10.71-.51-15.77-1.86-12.13-3.24-24.44-5.97-35.5-12.52-5.94-3.52-12.75-5.58-18.71-9.08-3.86-2.27-6.97-5.87-10.27-9.02-1.34-1.28-2.66-2.78-3.4-4.45-3.27-7.42-11.08-10.55-15.51-16.73-2.3-3.21-3.84-7.21-4.81-11.08-1.2-4.77-1.4-9.78-2.11-14.67-.39-2.7-.33-5.7-1.56-8-4.68-8.76-2.53-18.2-.8-26.53,1.59-7.66,7.84-14.39,12.18-21.44,2.24-3.63,4.8-7.06,7.97-11.7.32,3.8.56,6.65.8,9.5l.73-.03v-12.89l1.67-.84c8.68,6.34,12.22,17.08,19.93,24.41-4.67-7.67-9.35-15.33-14.88-24.41,6.38,1.56,11.4,2.81,16.44,4.01,5.36,1.27,10.74,2.44,16.09,3.76,5.16,1.27,10.24,2.93,15.45,3.95,4.77.93,8.94,3.51,14.01,3.91,5.16.41,10.18,2.62,15.26,4.04.13-.45.25-.91.38-1.36-9.3-2.6-18.56-5.33-27.89-7.77-14.32-3.74-28.72-7.14-43-11.01-2.93-.79-5.48-3.01-8.21-4.57,2.11-1.88,4.01-4.07,6.36-5.58,5.99-3.85,12.43-7.03,18.21-11.15,7.41-5.29,14.23-11.38,21.51-16.86,7.32-5.51,15.04-10.49,22.29-16.1,8.73-6.76,17.14-13.93,25.69-20.93,0,0-.17.18-.17.18,5.21-2.66,10.19-5.28,14.5-9.7,5.33-5.47,12.11-9.52,18.26-14.18,12.88-8.75,25.75-17.49,38.63-26.24,5.81-4.16,11.75-8.17,17.38-12.56,2.93-2.28,5.78-3.5,9.41-2.38,6.15,6.93,10.62,8.73,14.39,5.78q-10.13-6.36-14.52-5.65c-2.95-3.98,1.87-4.4,2.99-6.51,3.91-2.2,7.82-4.39,11.72-6.59,6.26-3.84,12.51-7.69,18.77-11.53,9.39-5.04,18.79-10.08,28.18-15.12,4.05,2.6,4.74,7.47,1.77,12.48v-6.54c-.59-.06-1.17-.11-1.76-.17-.77,4.27-1.79,8.51-2.25,12.8-.49,4.61.75,9.77-.94,13.79-2.03,4.86-6.34,8.76-9.86,13.33,1.13,1.85,2.6,4.24,4.29,7-2.12.23-3.5.39-5.34.59.5,1.47.85,2.53,1.21,3.58-.43-.48-.87-.95-1.3-1.43-2.15.98-4.29,1.96-6.44,2.95,1.01,1.22,2.01,2.44,3.02,3.67-2.31-1.03-4.62-2.07-7.59-3.4.56,1.31.95,2.2,1.49,3.48-1.23.4-3.15.45-3.51,1.23-2.02,4.33-5.45,2.94-8.78,2.76-1.18-.07-2.78.74-3.56,1.68-1.93,2.3-3.49,4.91-5.21,7.4l-1.87.46c1.81,1.51,3.62,3.03,5.44,4.53,1.12.92,2.76,1.58,3.3,2.75,3.17,6.89,3.08,6.93,10.29,5.34.84-.18,1.7-.23,2.55-.34-3.69,3.41-6.45,7.32-3.49,12.32,1.3,2.19,3.68,4.52,6.01,5.14,3.16.84,3.29-1.87,2.74-4.38-.04-.18,1.53-.71,2.4-1.1-1.28-3.69-7.91-5.03-3.53-10.53-1.72-.54-2.99-.93-4.26-1.33Zm-47.77-34.35c3.91,2.44,7.25,4.51,10.58,6.59-1.17-2.47-3.14-3.76-4.65-5.47-1.38-1.57-1.29-5.75-5.93-1.12Z"/>
  <path class="cls-1" d="m425.76,66.75c-9.39,5.04-18.79,10.08-28.18,15.12-4.87,2.54-9.74,5.08-14.61,7.63-.54-.34-1.09-.67-1.63-1.01,1.29-7.76,2.58-15.53,3.87-23.29-1.73,2.78-2.63,5.69-3.16,8.67-1.17,6.49-2.16,13.02-3.23,19.53-3.91,2.2-7.82,4.39-11.72,6.59-5.26,1.83-10.49,3.54-14.22,8.22-4.25,5.34-12.35,6.27-15.42,13.1-12.88,8.75-25.75,17.49-38.63,26.24-1.64.31-3.27.62-5.82,1.09v-29.91c-.85,8.32-1.63,16.7-1.27,25.03.2,4.66-.79,7.79-4.49,10.61-7.2,5.5-14.13,11.36-21.18,17.07,0,0,.17-.18.17-.18-4.26,2.86-8.59,5.62-12.77,8.59-25.42,18.08-50.79,36.23-76.22,54.3-2.19,1.56-4.7,2.66-8.66,4.87,1.63-20.59,3.11-39.77,4.67-58.95,1.54-19.07,3.16-38.13,4.27-57.37-1.43,8.5-3.11,16.97-4.2,25.52-.85,6.64-.16,13.56-1.61,20.03-2,8.9-1.26,17.86-2.11,26.75-1.15,11.99-2.17,23.98-3.3,35.97-.07.77-.65,1.48-1.23,2.72-13.28-15.3-26.26-30.25-39.24-45.2-.33.26-.65.53-.98.79,11.3,15.98,26.79,28.76,36.92,45.63-.27.39-.54.78-.8,1.17-2.48-.7-4.96-1.41-7.44-2.11-.1.21-.2.43-.3.64,1.48.94,2.96,1.87,4.59,2.91-8.41,1.65-16.64,4.45-24.9,4.56-9.01.13-18.73.07-26.19-6.65-1.5-1.35-1.91-3.89-2.83-5.88.29-.31.58-.63.87-.95,2.18-.5,4.36-.99,6.7-1.52-.79-1.66-1.52-3.18-2.62-5.48,3.75,1.13,6.55,1.97,9.49,2.86-.98-2.45-1.71-4.27-2.62-6.55-3.89-.06-5.86-3.1-5.95-6.95-.05-2.15,1.64-4.34,3.1-7.86-3.28-1.58-7.65-3.69-12.52-6.04,1.82-.49,3.19-.86,5.03-1.35-3.12-.66-5.83-1.23-8.53-1.81-.03-.37-.05-.74-.08-1.11,1.98-.49,3.96-.97,5.91-1.45-1.36-7.81-2.35-8.69-8.59-7.48.22-1.01.84-2.48.54-2.7-4.67-3.49-9.42-6.9-14.25-10.16-2.68-1.81-6.74-2.22-3.96-7.45,1.86-3.5-3.3-10.8-6.24-13.26-2.94-2.46-5.91-6.43-6.32-10.03-.74-6.56-.11-13.41.96-19.98.65-3.97,3.21-7.62,4.9-11.43.48-1.09.89-2.22,1.36-3.32,3.95-9.32,6.26-10,16.6-6.49,3.52,1.19,7.54.92,10.78,2.02,4.56,2.16,9.26,4.07,13.63,6.56,3.13,1.77,5.83,4.31,8.73,6.5-2.86,2.69-.43,3.79,1.51,5.06,2.45,1.6,2.38,1.4,7.1.04,1.65-.48,4.44,1.24,5.4.42,2.49-2.13,5.18-2.67,8.89-2.39-3.35-5.56-5.75-10.3-4.43-16.7.6-2.9-3.34-6.61-4.84-10.12-.5-1.16-.19-3.88.44-4.12,5.62-2.18,5.79-5.59,2.91-10.12-.34-.53.09-1.56.11-1.78-1.97-1.55-3.84-3.01-5.86-4.6,5.43-4.78,8.18-9.4,5.55-15.81-.31-.76.2-1.91.5-2.82.07-.22.97-.4,1.29-.23.35.19.48.81,1.05,1.92,0-8.13,0-15.16,0-22.18,0-.08.08-.16.25-.24,1.83-2.56,3.17-5.82,5.6-7.55,6.4-4.55,10.97-11.65,19.3-13.58,5.23-1.21,10.22-3.52,15.47-4.55,8.46-1.66,17.05-2.69,25.59-3.94,1.68-.25,3.42-.09,5.07-.43,8.64-1.78,14.67,2.17,19.57,8.72,5.67,7.58,12.15,14.7,16.76,22.88,3.65,6.47,4.28,14.37,2.76,21.9-.19.96-3.36,1.32-6.02,2.28.09.25.61,1.8,1.14,3.35-1.84.47-4.19,1.08-6.92,1.78.39-1.26.81-2.58,1.22-3.89-.23-.19-.47-.39-.7-.58-4.51,5.36-9.03,10.72-13.54,16.09l.58.66c2.15-1.98,4.22-4.04,6.46-5.9,2.32-1.92,4.78-4.48,7.93.26-4.35-.85-7.26-.39-7.12,4.64.04,1.4-1.68,2.87-2.65,4.28-4.2,6.11-3.99,7.32,3.55,12.87-1.05-4.17-1.78-7.05-2.51-9.95,3.15,2.29,5.94,4.32,9.71,7.07-.87,4.24-1.11,10.15-3.3,15.21-6.62,15.28-14.14,30.16-20.97,45.36-1.62,3.59-2.72,7.82-2.56,11.7.17,4.21,4.12,5.56,6.92,2.39,2.97-3.36,5.42-7.5,6.99-11.71,2.02-5.42,2.02-11.72,4.55-16.8,3.54-7.09,4.85-14.08,3.69-21.74-.05-.3.05-.82.26-.94,6.73-4.12,3.97-13.44,10.31-17.75.63.88,1.52,2.15,2.69,3.79,1.21-1.37,2.15-2.42,3.19-3.59.34.48.82.85.87,1.27.68,5.93,5.71,8.41,9.64,11.44,3.13,2.41,4.37-.83,4.29-3.26-.19-5.47-.8-10.93-1.45-16.37-.45-3.75-1.58-7.49,2.4-10.21.41-.28.14-1.46.34-2.17,2.02-7,2.02-14.91,8.82-19.79l-.13-.13c1.4,3.35,2.8,6.7,3.86,9.25.44-6.53,5.95-8.88,12.28-10.69,3.42-.98,6.12-3.07,5.72-7.45-.29-3.23,0-6.51-.24-9.75-.28-3.71,2.06-4.78,4.96-5.32.97-.18,2.05.29,3.06.2,8.9-.79,11.95-.28,18.47,4.69,2.51,1.91,4.15,4.95,6.68,8.09-2.6.45-3.82.65-5.12.88,1.9,5.97,3.69,11.6,5.48,17.24.44-.1.88-.2,1.32-.3-.77-4.41-1.53-8.82-2.3-13.23.27-.05.54-.1.82-.15.75,3.63,1.25,7.34,2.34,10.86.55,1.79,1.85,3.86,3.4,4.62.86.42,2.83-1.8,4.44-2.49,4.9-2.12,5.71-6.77,7.39-11.04,1.69-4.28,8.98-7.65,13.94-7.02-.57.62-1.16,1.26-1.75,1.91,1.81.59,3.63,1.18,5.66,1.84.81-2.01,1.43-3.55,1.99-4.95,2.76-.47,5.63-1.76,8.08-1.21,5.56,1.25,10.93,3.37,16.35,5.22.95.32,1.72,1.42,2.65,1.54,8.38,1.02,13.34,7.86,20.02,11.75.83.48.94,2.19,1.55,3.74.88.08,2.72.25,4.67.43-.06-.67-.12-1.35-.22-2.62,2.29,1.99,4.16,3.62,6.88,5.99-2.34.54-3.72.86-5.1,1.18ZM127.21,230.77l.4,1.97c-3.5.72-7,1.44-10.88,2.24.16,1.15.35,2.57.76,5.6,4.4-2.75,7.8-5.1,11.43-7.05,1.79-.96,3.95-1.3,6-1.66,1.43-.25,2.93-.05,4.4-.05-.05-.3-.09-.6-.14-.89-5.98-.95-11.96-1.9-17.94-2.85-.07.31-.13.63-.2.94,2.06.58,4.12,1.16,6.17,1.75ZM232.37,52.37c3.61-1.99,5.93-2.84,7.67-4.35,1.73-1.5,2.87-3.67,4.26-5.55-1.81-1.23-3.63-2.46-5.44-3.69-.44.57-.88,1.14-1.33,1.71,1.28,1.51,2.56,3.02,4.28,5.06-2.33.51-4.65.51-6.35,1.55-1.28.78-1.76,2.87-3.1,5.29Zm125.48,47.12c.63.06,1.25.12,1.88.19.69-7.32,1.37-14.65,2.06-21.97-.64-.06-1.28-.12-1.92-.17-.67,7.32-1.35,14.64-2.02,21.96Z"/>
  <path class="cls-1" d="m21.44,311.49c-.43.69-.72,1.16-1.45,2.35,50.74-17.37,97.69-41.23,143.22-68.17l1.17,2.04c-4.23,2.82-8.23,6.09-12.73,8.4-29.51,15.13-58.92,30.51-88.81,44.87-16.69,8.02-34.26,14.22-51.42,21.27-1.91.78-3.72,1.79-5.63,2.57-1.94.8-4.59,4.08-5.69.3-.58-1.99,1.57-6.24,3.6-7.25,5.48-2.72,11.55-4.26,17.74-6.39Z"/>
</svg>